# xmcd
#
# Track frame offsets:
#	150
#	18433
#	31464
#	50862
#	66550
#	80225
#	99436
#	115292
#	131389
#	146559
#	161143
#	180615
#	198594
#	213786
#	228057
#
# Disc length: 3280 seconds
#
# Revision: 1
# Processed by: cddbd v1.5.2PL0 Copyright (c) Steve Scherf et al.
# Submitted via: audiograbber 1.83.01
#
DISCID=d90cce0f
DTITLE=Country - CB60155
DYEAR=1998
DGENRE=Karaoke
TTITLE0=Betty's Got A Bass Boat
TTITLE1=I Was Blown Away
TTITLE2=The River and The Highway
TTITLE3=In Between Dances
TTITLE4=Lovin' A Hurricane
TTITLE5=Souvenirs
TTITLE6=No Way Out
TTITLE7=Hangin' In
TTITLE8=Between The Two Of Them
TTITLE9=Find Out What's Happening
TTITLE10=Can't Run From Yourself
TTITLE11=Better Your Heart Than Mine
TTITLE12=You Can Sleep While I Drive
TTITLE13=I Wanna Go Too Far
TTITLE14=On A Bus To St. Cloud
EXTD=
EXTT0=
EXTT1=
EXTT2=
EXTT3=
EXTT4=
EXTT5=
EXTT6=
EXTT7=
EXTT8=
EXTT9=
EXTT10=
EXTT11=
EXTT12=
EXTT13=
EXTT14=
PLAYORDER=
